<?xml version="1.0" encoding="UTF-8" standalone="no"?>
<svg
   viewBox="0 0 1961.5255 1857.1792"
   height="1857.1792"
   width="1961.5255"
   xml:space="preserve"
   id="svg2"
   version="1.1"
   sodipodi:docname="volunteer_here.svg"
   inkscape:version="1.2.2 (732a01da63, 2022-12-09)"
   xmlns:inkscape="http://www.inkscape.org/namespaces/inkscape"
   xmlns:sodipodi="http://sodipodi.sourceforge.net/DTD/sodipodi-0.dtd"
   xmlns="http://www.w3.org/2000/svg"
   xmlns:svg="http://www.w3.org/2000/svg"
   xmlns:rdf="http://www.w3.org/1999/02/22-rdf-syntax-ns#"
   xmlns:cc="http://creativecommons.org/ns#"
   xmlns:dc="http://purl.org/dc/elements/1.1/"><sodipodi:namedview
     id="namedview41"
     pagecolor="#ffffff"
     bordercolor="#000000"
     borderopacity="0.25"
     inkscape:showpageshadow="2"
     inkscape:pageopacity="0.0"
     inkscape:pagecheckerboard="0"
     inkscape:deskcolor="#d1d1d1"
     showgrid="false"
     inkscape:zoom="1.6332149"
     inkscape:cx="1043.9533"
     inkscape:cy="482.48397"
     inkscape:window-width="2350"
     inkscape:window-height="1417"
     inkscape:window-x="6392"
     inkscape:window-y="-8"
     inkscape:window-maximized="1"
     inkscape:current-layer="g12" /><metadata
     id="metadata8"><rdf:RDF><cc:Work
         rdf:about=""><dc:format>image/svg+xml</dc:format><dc:type
           rdf:resource="http://purl.org/dc/dcmitype/StillImage" /></cc:Work></rdf:RDF></metadata><defs
     id="defs6" /><g
     transform="matrix(1.3333333,0,0,-1.3333333,-527.3217,2558.3279)"
     id="g10"><g
       transform="scale(0.1)"
       id="g12"><path
         id="path20"
         style="fill:#7fffd4;fill-opacity:1;fill-rule:nonzero;stroke:none;stroke-width:1.12729"
         d="M 4105.1472 14286.034 L 4105.1472 7120.2524 L 18374.82 7120.2524 L 18374.82 11229.051 L 17941.139 11229.051 L 17530.514 11781.268 L 17351.51 11781.268 L 17351.51 11229.051 L 16965.157 11229.051 L 16965.157 12734.984 L 17616.485 12734.984 C 17705.485 12734.984 17782.017 12729.922 17846.07 12719.808 C 17910.124 12709.694 17970.123 12687.778 18026.085 12654.066 C 18082.722 12620.354 18127.564 12576.536 18160.602 12522.596 C 18194.314 12469.331 18211.168 12402.236 18211.168 12321.327 C 18211.168 12210.077 18185.214 12119.398 18133.297 12049.276 C 18082.054 11979.155 18008.551 11920.838 17912.809 11874.315 L 18374.82 11281.229 L 18374.82 14286.034 L 4105.1472 14286.034 z M 6894.9862 12766.332 C 7136.3656 12766.332 7326.1655 12695.872 7464.3856 12554.955 C 7602.6056 12414.712 7671.7049 12223.566 7671.7049 11981.512 C 7671.7049 11741.481 7602.9421 11550.672 7465.3963 11409.081 C 7327.8505 11268.163 7137.7141 11197.704 6894.9862 11197.704 C 6652.9325 11197.704 6463.1325 11268.163 6325.5867 11409.081 C 6188.0409 11550.672 6119.2635 11741.481 6119.2635 11981.512 C 6119.2635 12223.566 6188.0409 12414.712 6325.5867 12554.955 C 6463.1325 12695.872 6652.9325 12766.332 6894.9862 12766.332 z M 4457.5886 12734.984 L 4865.1668 12734.984 L 5229.2537 11677.088 L 5593.3553 12734.984 L 5990.8113 12734.984 L 5441.6414 11229.051 L 5006.7586 11229.051 L 4457.5886 12734.984 z M 7968.0428 12734.984 L 8356.4022 12734.984 L 8356.4022 11520.336 L 9054.2538 11520.336 L 9054.2538 11229.051 L 7968.0428 11229.051 L 7968.0428 12734.984 z M 9266.6415 12734.984 L 9657.0224 12734.984 L 9657.0224 11795.419 C 9657.0224 11690.911 9678.9387 11613.033 9722.7646 11561.791 C 9766.5904 11510.549 9837.7234 11484.93 9936.163 11484.93 C 10033.254 11484.93 10104.051 11509.539 10148.551 11558.758 C 10193.725 11607.978 10216.314 11686.865 10216.314 11795.419 L 10216.314 12734.984 L 10606.695 12734.984 L 10606.695 11774.178 C 10606.695 11588.086 10550.061 11445.485 10436.788 11346.371 C 10323.515 11247.257 10156.641 11197.704 9936.163 11197.704 C 9715.6852 11197.704 9548.811 11247.257 9435.538 11346.371 C 9322.9392 11445.485 9266.6415 11587.75 9266.6415 11773.168 L 9266.6415 12734.984 z M 10969.771 12734.984 L 11433.995 12734.984 L 11983.165 11872.279 L 11983.165 12734.984 L 12339.166 12734.984 L 12339.166 11229.051 L 11964.957 11229.051 L 11325.787 12262.674 L 11325.787 11229.051 L 10969.771 11229.051 L 10969.771 12734.984 z M 12572.794 12734.984 L 13901.73 12734.984 L 13901.73 12443.714 L 13431.441 12443.714 L 13431.441 11229.051 L 13043.082 11229.051 L 13043.082 12443.714 L 12572.794 12443.714 L 12572.794 12734.984 z M 14135.357 12734.984 L 15224.601 12734.984 L 15224.601 12443.714 L 14521.695 12443.714 L 14521.695 12183.793 L 15174.034 12183.793 L 15174.034 11892.508 L 14521.695 11892.508 L 14521.695 11520.336 L 15224.601 11520.336 L 15224.601 11229.051 L 14135.357 11229.051 L 14135.357 12734.984 z M 15550.265 12734.984 L 16639.508 12734.984 L 16639.508 12443.714 L 15936.603 12443.714 L 15936.603 12183.793 L 16588.941 12183.793 L 16588.941 11892.508 L 15936.603 11892.508 L 15936.603 11520.336 L 16639.508 11520.336 L 16639.508 11229.051 L 15550.265 11229.051 L 15550.265 12734.984 z M 6895.9969 12482.137 C 6846.7771 12482.137 6800.2525 12473.374 6756.4266 12455.843 C 6713.275 12438.313 6673.4949 12409.316 6637.0858 12368.861 C 6603.3735 12331.103 6575.7221 12278.858 6554.1463 12212.108 C 6533.2447 12146.032 6522.7987 12069.164 6522.7987 11981.512 C 6522.7987 11891.838 6532.9083 11815.306 6553.1356 11751.927 C 6574.0371 11689.222 6601.3521 11637.987 6635.0643 11598.207 C 6668.7764 11558.426 6708.22 11529.092 6753.3944 11510.213 C 6798.5687 11491.334 6846.1028 11481.898 6895.9969 11481.898 C 6945.891 11481.898 6993.4251 11491.334 7038.5994 11510.213 C 7083.7738 11529.766 7123.2174 11559.773 7156.9295 11600.228 C 7194.6872 11646.077 7222.6605 11700.019 7240.8651 11762.049 C 7259.0697 11824.754 7268.1698 11898.242 7268.1698 11982.523 C 7268.1698 12072.872 7257.7236 12149.739 7236.8221 12213.119 C 7215.9205 12276.497 7188.6203 12327.733 7154.908 12366.839 C 7120.5216 12407.294 7080.7269 12436.628 7035.5526 12454.833 C 6991.0524 12473.037 6944.5425 12482.137 6895.9969 12482.137 z M 17351.51 12457.865 L 17351.51 12052.308 L 17470.851 12052.308 C 17532.881 12052.308 17584.79 12055.337 17626.593 12061.405 C 17668.396 12067.473 17703.465 12081.299 17731.783 12102.875 C 17758.753 12123.776 17778.299 12146.702 17790.436 12171.649 C 17803.246 12197.27 17809.654 12231.315 17809.654 12273.793 C 17809.654 12311.551 17801.901 12343.913 17786.393 12370.882 C 17770.885 12397.852 17744.258 12419.096 17706.5 12434.603 C 17680.205 12445.391 17649.525 12451.799 17614.464 12453.822 C 17579.403 12456.519 17538.614 12457.865 17492.091 12457.865 L 17351.51 12457.865 z M 8513.1698 10145.887 L 8901.5292 10145.887 L 8901.5292 9594.6812 L 9474.9716 9594.6812 L 9474.9716 10145.887 L 9863.3456 10145.887 L 9863.3456 8639.9546 L 9474.9716 8639.9546 L 9474.9716 9303.4116 L 8901.5292 9303.4116 L 8901.5292 8639.9546 L 8513.1698 8639.9546 L 8513.1698 10145.887 z M 10247.662 10145.887 L 11336.905 10145.887 L 11336.905 9854.6031 L 10634 9854.6031 L 10634 9594.6812 L 11286.339 9594.6812 L 11286.339 9303.4116 L 10634 9303.4116 L 10634 8931.2241 L 11336.905 8931.2241 L 11336.905 8639.9546 L 10247.662 8639.9546 L 10247.662 10145.887 z M 11662.569 10145.887 L 12313.883 10145.887 C 12402.883 10145.887 12479.414 10140.825 12543.468 10130.711 C 12607.52 10120.597 12667.52 10098.681 12723.482 10064.969 C 12780.119 10031.257 12824.961 9987.4393 12857.999 9933.4995 C 12891.711 9880.2343 12908.565 9813.1393 12908.565 9732.23 C 12908.565 9620.9797 12882.611 9530.3006 12830.694 9460.1792 C 12779.452 9390.0578 12705.963 9331.7264 12610.221 9285.2036 L 13112.867 8639.9546 L 12638.536 8639.9546 L 12227.926 9192.1567 L 12048.907 9192.1567 L 12048.907 8639.9546 L 11662.569 8639.9546 L 11662.569 10145.887 z M 13282.774 10145.887 L 14372.018 10145.887 L 14372.018 9854.6031 L 13669.112 9854.6031 L 13669.112 9594.6812 L 14321.451 9594.6812 L 14321.451 9303.4116 L 13669.112 9303.4116 L 13669.112 8931.2241 L 14372.018 8931.2241 L 14372.018 8639.9546 L 13282.774 8639.9546 L 13282.774 10145.887 z M 12048.907 9868.7681 L 12048.907 9463.2114 L 12168.248 9463.2114 C 12230.279 9463.2114 12282.202 9466.2399 12324.005 9472.3081 C 12365.808 9478.3763 12400.863 9492.202 12429.181 9513.7778 C 12456.151 9534.6794 12475.697 9557.6052 12487.833 9582.5523 C 12500.644 9608.1735 12507.052 9642.2185 12507.052 9684.6958 C 12507.052 9722.4535 12499.297 9754.8159 12483.79 9781.7857 C 12468.282 9808.7554 12441.655 9829.9988 12403.897 9845.5064 C 12377.602 9856.2943 12346.923 9862.7024 12311.861 9864.7251 C 12276.801 9867.4221 12236.011 9868.7681 12189.488 9868.7681 L 12048.907 9868.7681 z " /><g
         transform="scale(1.14586)"
         id="g22"><path
           id="path24"
           style="fill:#7fffd4;fill-opacity:1;fill-rule:nonzero;stroke:none"
           d="m 12793.6,13829.9 1730.3,5.3 h -0.3 c 40.8,0.2 82.1,0.4 123.3,0.4 293.6,0 612,-10.1 885,-131.5 315.3,-140.1 554.9,-419.8 666.4,-756.7 99.8,-301.5 95.2,-650.5 89.4,-1427.4 -0.7,-84.2 -1.3,-171.8 -1.9,-267 -6.3,-987.5 -5.3,-2605.77 -4.3,-4224.39 l -0.1,4.53 0.1,-2.35 v -0.03 c 8.4,-262.43 18.5,-549.88 -70.4,-850.04 -87.9,-296.55 -275.4,-615.66 -548.4,-795.62 -272.3,-179.42 -612.5,-205.87 -904.9,-231.34 -4.2,-0.34 -8.4,-0.55 -12.6,-0.51 l -2962.9,5.15 c -0.7,0 -1.3,0 -2,0 -26.2,0.41 -51,0.78 -76.4,0.78 -110.8,0 -232.7,-7.15 -426.5,-57.78 -243.5,-63.58 -598,-194.96 -847.6,-303.67 -62.1,-27.04 -117.5,-52.6 -169.1,-76.36 -42.1,-19.44 -82.3,-38.02 -119.8,-54.35 -93.8,-40.8 -191.46,-77.79 -291.41,-77.79 -0.04,0 -1.78,0 -1.33,0 h -0.18 c -112.83,0.41 -211.38,49.43 -309.87,95.38 -71.25,33.27 -156.72,73.13 -272.69,117.38 -274.83,104.83 -721.2,234.6 -983.12,310.73 h -0.03 l -54.89,15.95 h -0.07 l -11.52,3.37 -10.83,3.14 h 0.03 c -157.43,45.86 -189.54,55.23 -382.56,55.23 -67.4,0 -152.42,-1.27 -267,-3 h 0.04 l -3.79,-0.07 h -0.03 l -2416.54,-35.97 c -4.67,-0.06 -9.37,0.07 -14.04,0.48 -370.97,31.19 -777.76,63.79 -1053.07,177.67 -299.79,124.02 -444.24,340.43 -517.83,616.67 -69.99,262.62 -79.77,593.06 -89.56,899.8 -0.03,1.43 -0.07,2.86 -0.07,4.29 l -9.06,5050.82 c 0,3.1 0.06,6.3 0.27,9.4 27.98,432.8 55.23,928.5 317.96,1275.3 269.58,355.9 757.71,525.6 1457.31,603.8 466.46,52.1 1044.25,65 1654.32,65 314.55,0 639.12,-3.5 962.84,-6.9 78.54,-0.8 141.58,-65.2 140.72,-143.8 -0.82,-78.5 -65.18,-141.5 -143.76,-140.7 -323.95,3.4 -647.02,6.9 -959.8,6.9 -608.85,0 -1173.14,-13.1 -1622.72,-63.3 -687.83,-76.8 -1068.48,-237.2 -1262.12,-492.8 -200.54,-264.7 -231.05,-661.7 -260.78,-1121.8 l 0.27,9.4 9.11,-5050.8 -0.11,4.26 c 10.16,-317.48 20.32,-611.27 80.12,-835.62 56.17,-210.77 151.35,-344.14 351.63,-426.98 224.79,-92.99 578.58,-124.32 968.19,-157.09 l -14.04,0.49 2416.5,35.99 h -0.03 l 3.78,0.08 h 0.04 c 113.72,1.7 201.19,3.02 271.25,3.02 224.69,0 283.83,-14.65 462.09,-66.57 l 10.8,-3.14 11.53,-3.38 -0.03,0.04 54.88,-15.95 h -0.03 c 257.68,-74.86 717.01,-208.19 1005.17,-318.13 126.14,-48.11 219.47,-91.71 291.61,-125.38 116.45,-54.35 153.3,-68.53 190.56,-68.66 h -0.14 c -0.44,0 1.51,0 0.62,0 35.21,0 84.75,13.64 177.81,54.14 34.2,14.89 71.5,32.08 114.3,51.81 51.4,23.69 109.3,50.46 174.6,78.85 257.8,112.26 626.9,249.57 889.3,318.1 220.8,57.68 367.2,67.05 498.4,67.05 27.9,0 55,-0.41 80.8,-0.81 h -2 l 2963,-5.15 -12.6,-0.55 c 309.9,27 572,53.01 772.9,185.45 200.2,131.86 356.7,384.02 432.2,638.91 74,249.68 67.5,492.36 58.9,760.01 v -0.04 l -0.1,2.36 c 0,1.53 -0.1,3.02 -0.1,4.53 -1,1618.28 -1.9,3237.46 4.4,4226.36 0.6,96.5 1.2,182 1.9,267.3 6,801.6 6.2,1090.5 -75,1335.9 -88.7,267.8 -276.4,481.5 -511.9,586.1 -211,93.8 -472,107 -769.4,107 -40.3,0 -80.8,-0.2 -121.8,-0.5 h -0.3 l -1730.3,-5.3 c -78.6,-0.2 -142.5,63.3 -142.7,141.9 -0.3,78.5 63.2,142.4 141.8,142.7 z" /></g><path
         id="path26"
         style="fill:#7fffd4;fill-opacity:1;fill-rule:nonzero;stroke:none"
         d="m 9994.57,15512.4 597.43,55.8 c 132.8,-244.1 224.7,-401.9 275.5,-473.1 34.6,-51.1 67.7,-94 99,-128.8 l 123.5,-127.4 c 11.5,-12.2 22.1,-24.6 31.8,-37.1 19.5,-24.9 34.6,-53 45.3,-84.5 24.5,-92 13.5,-166 -33.3,-221.9 -50.4,-60.8 -115.3,-94.5 -194.5,-101 -128.1,-10.3 -259.3,65 -393.5,225.8 -103.1,109.7 -286.9,407.1 -551.23,892.2" /><g
         transform="scale(1.07852)"
         id="g28"><path
           id="path30"
           style="fill:#7fffd4;fill-opacity:1;fill-rule:nonzero;stroke:none"
           d="m 10470.6,15604.6 24,695.4 c -159.5,-191.7 -351,-389.7 -574.46,-593.7 -69.72,-63.4 -142.92,-126 -219.67,-188 L 9205.91,15141 c -72.7,-62.5 -112.94,-99.3 -120.72,-110.4 -85.66,-83.4 -131.19,-182.3 -136.51,-296.6 0.21,-84.9 23.65,-166.1 70.34,-243.6 61.43,-80.9 132.23,-127.9 212.46,-141 51.1,-11.2 111.01,-17 179.68,-17.6 337.44,5.9 525.54,6.4 564.21,1.6 25.73,1.2 121.13,-6.4 286.13,-22.8 196.2,-18.6 569.4,-84 1119.5,-196.2 -304.1,393.1 -466.1,610.9 -485.8,653.5 l -84.2,155.6 -340.4,681.1" /></g><g
         transform="scale(1.01448)"
         id="g32"><path
           id="path34"
           style="fill:#7fffd4;fill-opacity:1;fill-rule:nonzero;stroke:none"
           d="m 10054.5,16300 -42.5,-32.4 c -261.24,-196.2 -408.82,-331.9 -442.67,-406.8 -25.72,-39.8 -41.21,-91.1 -46.48,-153.8 -3.31,-92.7 5.82,-169.7 27.38,-231.4 16.71,-54.4 47.02,-102 90.83,-142.6 33.46,-30.2 80.71,-53.6 141.67,-70.1 77.35,-26.3 269.37,-33 576.17,-19.8 l -304.4,1056.9" /></g><g
         transform="scale(1.05162)"
         id="g36"><path
           id="path38"
           style="fill:#ffffff;fill-opacity:1;fill-rule:nonzero;stroke:none"
           d="m 10621.9,16300 -205.4,-160.7 71.3,-149.4 136.4,58.3 z" /></g><g
         transform="scale(1.0381)"
         id="g40"><path
           id="path42"
           style="fill:#ffffff;fill-opacity:1;fill-rule:nonzero;stroke:none"
           d="m 10488.8,16300 -523.86,-417.8 590.36,278.6 z" /></g><g
         transform="scale(1.04429)"
         id="g56"><path
           id="path58"
           style="fill:#7fffd4;fill-opacity:1;fill-rule:nonzero;stroke:none"
           d="m 12179.4,16044.5 7.4,-40.6 c 9.5,-83.1 -3.6,-154.4 -39.2,-214 -35.9,-59.7 -87,-92.5 -153.4,-98.6 -64.3,-1.7 -122.1,24.2 -173.6,77.5 -16.5,17.3 -31.4,36.8 -44.6,58.7 l -18.2,34.2 c -11.2,23.8 -20.1,49.4 -26.6,76.7 -18.3,84.1 -12.9,159 16.1,224.6 29,65.6 75,107 138,124.1 64,12.9 123.6,-3.4 178.9,-49.1 55.4,-45.6 93.8,-110.1 115.2,-193.5" /></g><g
         transform="scale(1.13881)"
         id="g60"><path
           id="path62"
           style="fill:#7fffd4;fill-opacity:1;fill-rule:nonzero;stroke:none"
           d="m 12009.1,15050.6 c 283.9,-739.1 129.4,-1565.1 -448,-1786.9 -577.3,-221.8 -1245,288.5 -1528.9,1027.6 -283.88,739.2 -129.43,1565.1 448,1786.9 577.4,221.8 1245,-288.4 1528.9,-1027.6 m -197.1,-75.7 c -271.3,706.4 -850.6,1062 -1256.1,906.3 -405.6,-155.8 -597.9,-807.7 -326.6,-1514.2 271.3,-706.4 850.6,-1062 1256.2,-906.2 405.5,155.7 597.8,807.7 326.5,1514.1 z" /></g><g
         transform="scale(1.17794)"
         id="g64"><path
           id="path66"
           style="fill:#7fffd4;fill-opacity:1;fill-rule:nonzero;stroke:none"
           d="m 11634.2,15545.5 -146.6,35.6 343.9,665.9 c 19.7,38.1 66.5,53 104.5,33.3 38.1,-19.6 53,-66.4 33.3,-104.5 l -343.8,-665.9 c -16.4,-31.8 -52.5,-48.3 -87.3,-39.8 -34.7,8.4 -59.2,39.6 -59.2,75.4 0,42.8 34.7,77.6 77.6,77.6 42.8,0 77.6,-34.8 77.6,-77.6 z" /></g><g
         transform="scale(1.11141)"
         id="g68"><path
           id="path70"
           style="fill:#7fffd4;fill-opacity:1;fill-rule:nonzero;stroke:none"
           d="m 12704.3,15841.5 -109,77.7 1064.6,366 c 43,14.8 89.8,-8 104.5,-51 14.8,-42.9 -8,-89.7 -51,-104.5 l -1064.6,-366 c -25.2,-8.6 -52.9,-4.6 -74.5,10.9 -21.7,15.4 -34.5,40.3 -34.5,66.9 0,45.4 36.8,82.2 82.2,82.2 45.4,0 82.3,-36.8 82.3,-82.2 z" /></g><g
         transform="scale(1.03535)"
         id="g72"><path
           id="path74"
           style="fill:#7fffd4;fill-opacity:1;fill-rule:nonzero;stroke:none"
           d="m 13832.3,16289.2 960.6,-218.3 c 47.5,-10.8 77.3,-58 66.5,-105.6 -10.8,-47.5 -58.1,-77.3 -105.6,-66.5 l -960.6,218.3 c -47.6,10.8 -77.3,58.1 -66.5,105.6 10.8,47.5 58.1,77.3 105.6,66.5 z" /></g><g
         transform="scale(1.04581)"
         id="g78" /><text
         xml:space="preserve"
         style="font-weight:bold;font-size:500px;font-family:sans-serif;-inkscape-font-specification:'sans-serif Bold';fill:#ffffff;fill-opacity:0;stroke:#ffffff;stroke-width:7.5"
         x="4977.9121"
         y="-12362.121"
         id="text3757"
         transform="scale(1,-1)"><tspan
           sodipodi:role="line"
           id="tspan3755"
           style="fill:#ffffff;stroke:#ffffff;stroke-width:7.5"
           x="4977.9121"
           y="-12362.121" /></text></g></g></svg>
